<?xml version="1.0" encoding="utf-8"?>
<!-- Generator: Adobe Illustrator 19.0.0, SVG Export Plug-In . SVG Version: 6.00 Build 0)  -->
<svg version="1.1" id="Layer_1" xmlns="http://www.w3.org/2000/svg" xmlns:xlink="http://www.w3.org/1999/xlink" x="0px" y="0px"
	 viewBox="0 0 96 96" style="enable-background:new 0 0 96 96;" xml:space="preserve">
<style type="text/css">
	.st0{fill:#333333;}
</style>
<g id="XMLID_1_">
	<path id="XMLID_3_" class="st0" d="M70.8,35h-0.3c-1.6-11-11-19.5-22.5-19.5S27.1,24,25.5,35h-0.3c-3.6,0-6.5,2.9-6.5,6.5V48
		c0,3.6,2.9,6.5,6.5,6.5h6.5V38.3C31.8,29.3,39,22,48,22s16.3,7.3,16.3,16.3v16.3h6.5c3.6,0,6.5-2.9,6.5-6.5v-6.5
		C77.3,37.9,74.3,35,70.8,35z"/>
	<path id="XMLID_4_" class="st0" d="M61,41.5c0-7.2-5.8-13-13-13s-13,5.8-13,13c0,7.2,5.8,13,13,13S61,48.7,61,41.5z"/>
	<path id="XMLID_5_" class="st0" d="M48,57.8c-15.3,0-26,8-26,19.5v3.3h52v-3.3C74,65.8,63.3,57.8,48,57.8z"/>
</g>
</svg>
